<svg xmlns="http://www.w3.org/2000/svg" viewBox="0 0 168 168">
  <path fill="#1ED760" d="M84 0a84 84 0 1 0 0 168 84 84 0 0 0 0-168Zm38.7 121.1c-1.4 2.3-4.4 3-6.7 1.6-18.3-11.2-41.4-13.8-68.6-7.6-2.6.6-5.3-1-5.9-3.6s1-5.3 3.6-5.9c30-6.9 56.7-4 78.5 9.1 2.3 1.4 3 4.5 1.6 6.7Zm9.5-20.6c-1.8 2.9-5.6 3.8-8.5 2-21-13-53-16.7-77.8-9.2-3.3 1-6.7-.9-7.7-4.2-1-3.3.9-6.7 4.2-7.7 29.3-8.7 65.6-4.5 90.7 11.2 2.9 1.8 3.8 5.6 2 8.4ZM135 80c-25.2-15-66.5-16.4-90.4-9.1-4 1.2-8.2-1-9.4-5-1.2-4 1-8.2 5-9.4 28.4-8.6 74.4-6.9 104.5 11.3 3.6 2.1 4.8 6.8 2.6 10.4-2.1 3.6-6.8 4.8-10.4 2.6Z"/>
</svg>
